<?xml version="1.0" encoding="utf-8"?>
<!-- Svg Vector Icons : http://www.onlinewebfonts.com/icon -->
<!DOCTYPE svg PUBLIC "-//W3C//DTD SVG 1.1//EN" "http://www.w3.org/Graphics/SVG/1.1/DTD/svg11.dtd">
<svg version="1.1" xmlns="http://www.w3.org/2000/svg" xmlns:xlink="http://www.w3.org/1999/xlink" x="0px" y="0px" fill="#fff" viewBox="0 0 1000 1000" enable-background="new 0 0 1000 1000" xml:space="preserve">
<metadata> Svg Vector Icons : http://www.onlinewebfonts.com/icon </metadata>
<g><path d="M861.5,10h-723C67.6,10,10,67.6,10,138.5v722.9C10,932.3,67.6,990,138.5,990h723c70.8,0,128.5-57.7,128.5-128.5V138.5C990,67.6,932.3,10,861.5,10L861.5,10z M482,170c39.6,0,71.7,32,71.7,71.5s-32.1,71.5-71.7,71.5c-39.6,0-71.7-32-71.7-71.5C410.3,202.1,442.4,170,482,170z M376.5,348.6c6.2-6.2,20.5-16.5,47.4-16.5h96.7c54.9,0,65.5,54.8,54.3,83.1l-50.6,122.6c-3.1,7-9,12.7-16.3,15.3L397.3,594c-14.2,6.2-30.8-0.2-37-14.4c-6.2-14.2,0.2-30.8,14.4-37l102.2-38.4l31.6-75.3l-20.6-7.6l-26.8,64.5l-77.8,28.7v-78.8l-76,83.1l-86-0.1C221.2,518.6,371.8,353.5,376.5,348.6L376.5,348.6z M578.1,615.7H481l-21.2-21.1l57.5-21.3c13.6-5.1,23.3-15.9,27.6-28.7c0.2-0.3,0.5-0.5,0.6-0.9l32.5-76.6L578.1,615.7L578.1,615.7z M141.6,703.1l245.1-19.7l-47.5-71.9H219.5c-19.6,0-35.5-15.3-35.5-34.8c0-19.5,15.9-35.3,35.5-35.3c0,0,117.6-0.2,121.7,0c-9.2,12.5-10,29.8-4.5,45.2c9.4,24.8,39.8,38.5,64.8,29.5l33.7-12.4l48.4,47.2h200.7c33.9,0,61.2,27.4,61.2,61.1c0,33.6-27,60.7-60.7,61L467,773c-14.4-0.3-26-12-26-26.5c0-14.7,11.9-26.6,26.6-26.6h112.5l91.6-19.1l-4.9-23.7l-89.2,18.6h-110c-28,0-50.8,22.8-50.8,50.8c0,9.7,2.9,18.7,7.7,26.5l-275,0c-19.5,0-35.3-15.9-35.3-35.4C114.2,720.7,125.9,706.7,141.6,703.1L141.6,703.1z M856.6,857.8c0,0-694,0-715.5,0c-28.1,0-26.6-27.4-26.6-27.4v-21c0,0-1.7-12.7,14.4-12.7c14.2,0,571.4,0,571.4,0c45.5,0,65.3-42.4,89.2-42.4h69.7c21.7,0,24.1,18.4,24.1,18.4V831C883.4,831,884.9,857.8,856.6,857.8z M820.5,731.9c-35.6,0-64.6-28.9-64.6-64.4c0-35.7,28.9-64.4,64.6-64.4c35.6,0,64.6,28.8,64.6,64.4C885.1,703,856.1,731.9,820.5,731.9L820.5,731.9z"/></g>
</svg>